<?xml version="1.0" encoding="UTF-8" standalone="no"?>
<!DOCTYPE svg PUBLIC "-//W3C//DTD SVG 1.1//EN" "http://www.w3.org/Graphics/SVG/1.1/DTD/svg11.dtd">
<svg width="800px" height="600px" version="1.1" xmlns="http://www.w3.org/2000/svg" xmlns:xlink="http://www.w3.org/1999/xlink" xml:space="preserve" xmlns:serif="http://www.serif.com/" style="fill-rule:evenodd;clip-rule:evenodd;stroke-linecap:round;stroke-linejoin:round;stroke-miterlimit:1.5;">
    <path d="M175.951,277.418c-1.256,-6.183 4.024,-8.307 8.31,-12.189c11.493,-10.409 21.556,-21.658 37.675,-23.27c4.816,-0.481 15.681,-2.282 18.838,3.325c3.358,5.964 1.132,12.14 -1.663,17.729c-6.823,13.647 -19.563,20.624 -31.58,29.364c-4.099,2.981 -7.835,6.646 -11.635,9.973c-4.632,4.054 -16.602,13.192 -13.851,21.053c2.581,7.375 9.756,4.096 13.851,0c6.687,-6.687 10.845,-14.698 18.838,-19.945c3.413,-2.241 9.388,-5.92 13.851,-4.433c3.269,1.09 -0.71,7.754 -1.662,8.865c-5.349,6.24 -11.261,11.621 -13.851,19.392c-0.59,1.768 -1.589,6.722 -0,8.31c2.289,2.29 6,-5.089 6.648,-6.094c4.571,-7.094 9.027,-15.052 16.621,-19.392c1.185,-0.677 7.412,-3.669 8.865,-2.216c2.09,2.09 -2.475,7.676 -3.324,8.865c-3.167,4.433 -10.872,14.268 -7.757,20.499c1.656,3.313 4.562,-2.687 4.986,-3.324c3.155,-4.731 6.076,-13.475 12.189,-15.513c3.441,-1.147 0.554,11.921 0.554,13.851c0,1.268 1.264,4.908 3.325,3.878c4.985,-2.492 5.131,-11.732 9.972,-14.959c4.151,-2.767 6.133,5.689 9.973,6.649c3.061,0.765 11.731,-1.902 13.851,0.554c1.438,1.664 8.865,9.665 8.865,7.756" style="fill:none;stroke:black;stroke-width:1px;"/>
    <path d="M269.03,251.378c1.137,4.549 -2.254,7.097 -5.541,9.973c-5.9,5.162 -13.457,12.04 -17.175,18.837c-1.211,2.214 -4.154,7.205 -2.77,9.973c1.043,2.085 5.078,-0.528 6.094,-1.108c5.448,-3.114 9.981,-7.366 15.513,-10.527c1.329,-0.759 6.788,-3.462 7.757,-0.554c4.126,12.379 -22.321,16.143 -18.283,28.256c0.96,2.882 6.573,0.122 7.756,-0.554c5.214,-2.979 12.786,-15.683 19.946,-13.297c1.351,0.45 0.444,3.692 -0,4.432c-2.157,3.595 -6.58,7.965 -4.987,12.743c0.811,2.432 5.269,0.752 6.607,0.083c4.237,-2.118 6.843,-6.708 10.569,-9.501c0.672,-0.505 4.097,-1.998 4.986,-1.109c1.106,1.106 0.258,3.509 0.554,4.987c1.254,6.271 3.152,13.399 11.125,13.399c12.265,-0 16.842,-20.602 2.172,-20.602" style="fill:none;stroke:black;stroke-width:1px;"/>
    <path d="M322.218,277.418c-1.78,1.557 -3.246,3.859 -5.541,4.432c-9.335,2.334 -24.745,-2.397 -29.364,-11.635c-6.728,-13.455 -0.126,-35.325 14.405,-41.553c10.36,-4.44 31.549,4.069 29.364,17.176c-1.48,8.879 -11.007,16.259 -18.837,19.391c-8.436,3.374 -18.687,-3.674 -17.175,-12.743c0.956,-5.74 9.3,-10.06 14.405,-11.081c4.118,-0.823 7.032,4.006 6.094,7.757c-0.915,3.661 -6.953,8.31 -10.527,8.31" style="fill:none;stroke:black;stroke-width:1px;"/>
    <path d="M216.396,217.027c5.011,-2.698 4.557,-3.216 9.418,-4.432c2.594,-0.648 6.692,-2.062 9.419,-1.108c12.236,4.283 5.282,23.781 18.838,26.04c12.357,2.059 6.88,-13.413 14.405,-17.175c2.915,-1.458 12.175,10.658 17.246,5.586c2.365,-2.365 3.257,-6.116 2.699,-9.465c-0.149,-0.891 -2.456,-5.854 -1.662,-6.648c0.754,-0.754 6.3,-0 7.202,-0c7.188,-0 22.622,5.645 24.378,-6.649c0.234,-1.634 0.225,-3.975 -0.181,-5.598c-1.316,-5.265 -7.923,-8.33 -12.562,-9.361c-10.753,-2.389 -19.481,-0.823 -26.594,7.757c-2.299,2.773 -1.662,6.639 -1.662,9.973c0,0.751 0.443,3.435 0,3.878c-3.725,3.725 -9.324,5.923 -14.405,6.648c-7.682,1.098 -8.212,-5.574 -7.202,-11.634c1.06,-6.363 3.9,-11.474 -4.987,-12.743c-11.81,-1.688 -24.864,0.809 -36.012,4.432c-4.516,1.467 -11.634,3.681 -14.504,7.987c-1.91,2.864 -1.009,7.625 -1.009,10.85" style="fill:none;stroke:black;stroke-width:1px;"/>
    <path d="M206.423,281.296c-7.527,5.376 -14.976,9.02 -22.716,13.297c-2.034,1.125 -3.568,3.838 -4.986,5.541c-6.14,7.367 -11.212,13.938 -16.067,22.161c-3.447,5.838 -6.704,12.854 -6.704,19.692c-0,6.992 7.196,8.643 12.244,6.348" style="fill:none;stroke:black;stroke-width:1px;"/>
    <path d="M177.613,294.593c-18.701,7.413 -22.157,24.923 -30.472,41.553c-3.568,7.136 -4.867,21.054 5.54,21.054" style="fill:none;stroke:black;stroke-width:1px;"/>
    <path d="M153.235,295.147c-9.218,13.828 -20.801,26.542 -22.716,43.769c-0.553,4.978 -0.866,12.13 1.663,16.622c3.166,5.625 10.352,8.54 14.959,3.324" style="fill:none;stroke:black;stroke-width:1px;"/>
    <path d="M122.763,319.525c-10.683,13.354 -9.148,25.824 1.662,39.337c2.768,3.46 8.352,10.527 13.297,10.527" style="fill:none;stroke:black;stroke-width:1px;"/>
    <path d="M194.788,347.781c-6.719,5.498 -11.246,11.606 -16.067,18.837c-1.454,2.181 -2.84,4.08 -4.432,6.095c-0.734,0.928 -3.053,3.606 -2.216,2.77c5.387,-5.388 12.921,-10.361 19.391,-14.405c0.17,-0.107 5.898,-3.717 6.094,-3.324c1.131,2.26 -1.053,6.886 -1.662,8.864c-2.539,8.255 -4.876,16.957 -6.094,25.486c-0.22,1.54 -2.538,9.097 -1.108,10.527c0.653,0.653 1.249,-1.39 1.662,-2.216c1.631,-3.263 2.891,-6.67 4.432,-9.973c3.039,-6.511 6.209,-12.971 9.419,-19.391c0.139,-0.279 5.738,-10.131 6.094,-9.419c1.15,2.3 -0.387,7.091 -0.554,9.419c-0.766,10.723 -1.108,21.362 -1.108,32.134c0,1.329 -0.094,12.743 1.108,12.743c0.179,0 2.149,-9.08 2.216,-9.419c1.905,-9.521 3.34,-19.242 7.203,-28.256c0.442,-1.03 2.619,-7.126 3.878,-7.756c2.354,-1.177 3.866,8.268 3.879,8.31c2.143,7.503 3.396,15.213 5.54,22.716c0.578,2.025 0.833,4.159 1.662,6.094c0.412,0.961 1.478,2.955 2.216,2.217c2.312,-2.312 1.662,-9.026 1.662,-11.635c0,-6.885 -0.126,-13.652 -0.554,-20.5c-0.077,-1.231 -1.631,-9.767 -0.554,-11.081c1.33,-1.622 5.47,7.626 5.541,7.757c3.147,5.846 5.43,12.966 9.418,18.283c0.446,0.595 3.191,3.946 4.433,3.325c1.518,-0.759 1.153,-8.6 1.108,-9.973c-0.27,-8.172 -6.649,-15.864 -6.649,-23.824c0,-1.182 1.438,1.88 2.216,2.77c0.688,0.787 1.523,1.436 2.217,2.217c3.621,4.073 6.848,8.108 11.08,11.634c0.363,0.302 4.228,2.759 4.987,1.662c3.251,-4.698 -4.43,-16.615 -6.095,-19.945c-0.378,-0.756 -4.094,-7.541 -2.77,-8.865c1.154,-1.154 5.474,3.381 6.095,3.879c3.799,3.047 9.152,6.582 13.851,7.756c0.248,0.062 3.808,1.178 4.432,0.554c3.486,-3.486 -7.045,-7.888 -8.311,-8.31" style="fill:none;stroke:black;stroke-width:1px;"/>
    <path d="M146.033,279.08c-1.104,-15.45 -1.368,-31.626 -0.554,-47.093c0.271,-5.151 2.137,-9.901 2.77,-14.96c0.184,-1.477 1.607,-3.379 0.554,-4.432c-0.554,-0.554 -1.161,1.06 -1.662,1.662c-2.263,2.715 -3.675,5.89 -5.541,8.865c-5.686,9.067 -10.707,18.644 -15.513,28.256c-1.717,3.433 -3.833,6.558 -5.54,9.973c-0.739,1.477 -3.868,4.432 -2.216,4.432c0.492,0 3.192,-3.192 3.324,-3.324c3.364,-3.364 6.607,-6.152 10.527,-8.865c12.652,-8.759 28.287,-19.603 43.769,-21.607c0.924,-0.12 -1.917,0.082 -2.751,0.499c-1.97,0.985 -1.81,0.847 -3.898,1.717c-4.265,1.777 -8.46,3.853 -12.743,5.54c-8.197,3.23 -19.566,6.248 -28.256,3.878c-2.576,-0.702 -7.339,-6.094 -9.418,-6.094c-0.429,-0 2.135,3.748 2.216,3.878c1.938,3.101 3.623,6.304 5.54,9.419c4.707,7.648 8.359,15.914 14.405,22.716c1.154,1.297 7.757,5.723 7.757,7.756c-0,0.267 -5.32,1.053 -5.541,1.108" style="fill:none;stroke:black;stroke-width:1px;"/>
</svg>
