<?xml version="1.0" encoding="UTF-8" standalone="no"?>
<!DOCTYPE svg PUBLIC "-//W3C//DTD SVG 1.1//EN" "http://www.w3.org/Graphics/SVG/1.1/DTD/svg11.dtd">
<svg width="100%" height="100%" viewBox="0 0 800 600" version="1.1" xmlns="http://www.w3.org/2000/svg" xmlns:xlink="http://www.w3.org/1999/xlink" xml:space="preserve" xmlns:serif="http://www.serif.com/" style="fill-rule:evenodd;clip-rule:evenodd;stroke-linecap:round;stroke-linejoin:round;stroke-miterlimit:1.5;">
    <g transform="matrix(1,0,0,1,-129.207,-164.778)">
        <path d="M274.717,212.903C250.216,204.736 229.928,233.431 220.314,252.659C217.481,258.324 213.724,263.115 212.467,269.398C211.222,275.625 209.854,281.937 208.806,288.23C208.033,292.867 209.201,297.761 208.282,302.354C207.628,305.628 206.618,312.531 207.759,315.955C208.891,319.35 210.578,322.522 211.421,325.894C213.828,335.52 217.941,345.631 227.637,350.48C235.742,354.532 245.288,356.951 252.223,360.418C253.554,361.084 256.979,360.418 258.5,360.418C264.014,360.418 274.153,362.27 278.901,359.895C280.005,359.344 283.294,360.734 284.133,359.895C285.956,358.072 290.85,358.409 292.502,356.757C297.024,352.235 303.397,352.139 307.672,347.864C315.269,340.267 322.018,327.843 325.981,315.955C331.263,300.108 326.638,275.687 322.842,260.506C320.875,252.637 315.294,243.691 310.811,236.966C309.561,235.091 307.084,233.175 306.103,231.212C303.948,226.901 300.827,221.941 296.687,219.18C292.996,216.72 290.651,215.116 287.271,213.426C285.738,212.66 283.604,213.162 282.04,212.38C280.292,211.506 277.642,212.484 275.763,211.857C275.231,211.68 272.551,210.811 272.624,210.811C273.252,210.811 273.989,213.016 274.194,213.426M259.547,262.598C254.69,261.627 252.521,267.905 250.131,271.491C245.312,278.719 242.496,300.367 250.654,304.446C251.865,305.052 255.074,304.446 256.408,304.446C269.974,304.446 274.717,290.667 274.717,279.337C274.717,277.136 275.672,272.354 274.717,270.445C272.675,266.361 269.677,265.048 265.824,263.121C264.681,262.55 256.931,263.121 259.024,263.121M258.5,206.103C254.652,206.103 253.001,208.739 250.654,211.334C248.798,213.385 242.771,216.228 240.192,217.088C226.287,221.723 210.775,232.073 202.005,243.766C199.214,247.488 194.475,249.987 192.066,254.228C188.632,260.275 183.255,265.979 180.257,271.975C176.318,279.853 170.745,288.813 164.342,295.031C160.566,298.696 156.571,302.252 153.357,306.539C149.483,311.703 147.311,318.707 143.941,324.324C142.542,326.655 137.663,332.692 137.663,335.31C137.663,336.964 140.892,336.139 142.371,336.879C144.898,338.142 147.157,340.418 149.695,342.11C164.607,352.051 180.156,363.163 197.82,366.696C207.021,368.536 216.166,370.574 225.545,372.45C230.476,373.436 235.787,372.51 240.715,373.496C247.23,374.799 256.51,375.882 263.208,374.542C271.794,372.825 280.253,369.983 288.84,368.265C299.742,366.085 310.81,365.65 321.796,364.08C337.339,361.86 352.186,356.892 367.306,352.572C375.352,350.273 383.135,349.416 391.369,348.387C398.765,347.463 409.708,349.403 414.908,344.202C415.892,343.219 413.865,340.544 413.339,340.017C410.149,336.828 407.28,333.097 404.446,329.555C399.874,323.84 395.931,317.996 391.369,312.293C383.794,302.824 374.493,294.867 366.783,285.615C354.857,271.303 342.573,258.789 329.643,245.859C317.453,233.669 309.777,218.767 292.502,211.857C290.153,210.917 287.659,209.214 285.179,208.718C277.342,207.151 262.505,199.483 255.885,206.103M152.31,268.875C155.283,271.848 156.301,275.482 159.111,278.291C159.974,279.155 162.139,280.164 162.772,281.43C163.894,283.674 167.019,287.184 169.573,287.184M186.835,259.983C181.165,254.312 178.242,244.44 176.373,236.966C175.78,234.594 175.885,224.9 176.373,224.412C177.291,223.494 177.419,225.95 177.419,225.981M211.421,233.827C209.688,232.614 209.541,229.755 208.806,227.55C206.729,221.321 204.098,213.441 204.098,206.626C204.098,204.005 204.077,193.005 204.098,193.025M244.9,213.426C240.93,204.163 237.095,194.826 238.622,184.133C239.296,179.418 241.238,174.755 241.238,170.009M292.502,211.334C292.502,199.189 296.029,190.68 301.395,179.948C303.183,176.372 306.461,172.211 309.765,170.009C310.331,169.631 313.426,166.77 313.426,168.439M325.981,241.151C325.981,230.691 337.994,220.245 344.813,213.426C347.444,210.795 354.752,202.62 354.752,208.195M347.951,267.829C353.482,256.767 363.569,244.327 375.153,238.535C378.542,236.84 390.323,230.282 390.323,234.874M372.537,292.938C376.388,285.236 382.537,280.207 389.276,275.153C393.036,272.333 397.123,268.267 397.123,273.583" style="fill:none;stroke:black;stroke-width:1px;"/>
    </g>
</svg>
