<?xml version="1.0" encoding="UTF-8" standalone="no"?>
<!DOCTYPE svg PUBLIC "-//W3C//DTD SVG 1.1//EN" "http://www.w3.org/Graphics/SVG/1.1/DTD/svg11.dtd">
<svg width="800px" height="600px" version="1.1" xmlns="http://www.w3.org/2000/svg" xmlns:xlink="http://www.w3.org/1999/xlink" xml:space="preserve" xmlns:serif="http://www.serif.com/" style="fill-rule:evenodd;clip-rule:evenodd;stroke-linecap:round;stroke-linejoin:round;stroke-miterlimit:1.5;">
    <path d="M247.422,413.712c0,-8.696 -1.42,-13.92 -4.986,-21.054c-4.997,-9.993 -19.831,-15.053 -22.716,-26.594c-2.215,-8.859 1.535,-21.988 -1.108,-29.918c-2.586,-7.757 -9.639,-12.516 -11.635,-20.499c-1.326,-5.303 0.703,-12.999 -1.662,-17.73c-4.795,-9.59 -11.081,-15.149 -11.081,-27.148c0,-2.953 0.378,-9.053 3.324,-10.526c4.075,-2.038 13.38,-3.632 15.514,2.77c1.151,3.454 2.22,8.317 4.432,11.635c3.751,5.626 8.041,9.014 11.635,14.405c3.589,5.384 3.135,12.365 6.094,18.283c2.835,5.67 10.054,9.297 14.405,2.77c8.281,-12.421 2.424,-29.709 4.433,-43.769c2.261,-15.83 2.779,-32.72 7.202,-48.201c2.513,-8.797 7.234,-17.302 9.419,-26.04c2.379,-9.515 8.503,-34.026 22.715,-30.473c7.064,1.766 6.327,11.917 7.203,17.176c3.009,18.055 -3.781,36.08 -7.203,53.188c-1.329,6.646 -4.449,13.363 -6.094,19.945c-0.238,0.952 -0.655,6.422 1.108,5.54c7.783,-3.891 9.963,-15.744 11.635,-23.269c3.636,-16.364 12.874,-29.116 19.391,-44.324c3.263,-7.613 11.506,-21.501 22.162,-18.837c7.537,1.884 6.094,13.813 6.094,19.392c0,18.513 -17.564,36.237 -25.485,52.079c-2.392,4.784 -3.973,10.999 -4.987,16.068c-0.171,0.857 -0.499,5.013 0.554,5.54c1.466,0.733 2.977,-0.941 3.879,-1.662c3.71,-2.968 8.93,-7.202 11.399,-11.316c5.605,-9.343 8.449,-18.871 13.532,-28.021c3.124,-5.623 8.304,-9.549 12.189,-14.405c2.745,-3.431 9.708,-13.43 15.513,-10.527c6.354,3.177 2.818,17.352 2.217,22.162c-1.472,11.77 -11.55,29.236 -18.284,39.337c-3.216,4.823 -8.753,12.523 -6.648,18.837c0.781,2.344 3.642,-1.364 3.878,-1.662c2.35,-2.974 3.767,-5.996 5.499,-9.46c4.413,-8.827 9.428,-20.458 20.541,-20.458c2.586,-0 5.583,-0.768 7.202,1.662c2.236,3.353 1.663,8.286 1.663,12.189c-0,3.207 0.772,7.437 -0,10.526c-2.731,10.924 -14.486,22.27 -21.054,31.027c-12.044,16.059 -7.946,40.285 -11.635,58.728c-1.989,9.944 -11.582,18.231 -18.283,24.932c-1.913,1.913 -5.595,2.664 -7.203,4.432c-7.597,8.357 -14.102,15.714 -17.729,26.594c-1.346,4.039 0.47,8.648 -0.554,12.743c-0.161,0.644 -0.556,4.709 -1.108,4.432c-0.709,-0.354 -1.437,-3.51 -2.216,-4.432" style="fill:none;stroke:black;stroke-width:1px;"/>
</svg>
