<?xml version="1.0" encoding="UTF-8" standalone="no"?>
<!DOCTYPE svg PUBLIC "-//W3C//DTD SVG 1.1//EN" "http://www.w3.org/Graphics/SVG/1.1/DTD/svg11.dtd">
<svg width="800px" height="600px" version="1.1" xmlns="http://www.w3.org/2000/svg" xmlns:xlink="http://www.w3.org/1999/xlink" xml:space="preserve" xmlns:serif="http://www.serif.com/" style="fill-rule:evenodd;clip-rule:evenodd;stroke-linecap:round;stroke-linejoin:round;stroke-miterlimit:1.5;">
    <path d="M297.286,203.176c-4.771,-0.481 -11.642,7.947 -15.513,10.527c-14.634,9.756 -26.458,21.908 -38.229,34.905c-4.041,4.461 -7.361,9.128 -10.527,14.405c-1.195,1.991 -1.738,4.03 -2.77,6.094c-0.421,0.843 -0.554,2.77 -0.554,2.77c-0,0 4.448,-2.558 6.648,-3.878c4.019,-2.411 9.035,-3.16 13.297,-4.986c1.489,-0.638 3.36,-1.891 4.987,-2.216c1.101,-0.221 3.826,-1.559 3.324,-0.554c-1.712,3.423 -6.14,6.163 -8.311,9.418c-1.487,2.231 -3.5,3.865 -4.986,6.095c-0.823,1.234 -0.976,2.166 -1.662,3.324c-0.472,0.797 -5.389,6.246 -4.433,7.203c0.95,0.949 4.707,-0.751 5.541,-1.109c4.5,-1.928 8.982,-3.937 13.297,-6.094c0.967,-0.484 7.866,-4.876 8.864,-3.878c0.747,0.747 -1.906,3.258 -2.216,3.878c-1.833,3.667 -3.957,6.965 -6.094,10.527c-5.009,8.348 -5.871,20.58 -6.649,29.918c-2.527,30.326 18.152,49.862 44.324,60.39c11.452,4.607 22.864,8.882 35.458,6.095c11.383,-2.519 22.16,-9.814 32.135,-15.513c14.827,-8.473 29.945,-18.481 39.891,-32.689c5.358,-7.655 6.557,-17.048 7.756,-26.04c2.797,-20.979 -0.548,-38.216 -9.973,-57.066c-7.435,-14.87 -23.573,-30.655 -39.337,-36.566c-9.924,-3.722 -20.926,-5.183 -31.026,-7.203c-8.877,-1.775 -17.852,-5.869 -27.148,-2.77c-3.222,1.074 -6.128,3.056 -9.419,3.878c-0.656,0.164 -4.501,1.108 -3.324,1.108" style="fill:none;stroke:black;stroke-width:1px;"/>
    <path d="M308.921,234.203c-7.203,5.761 4.001,14.262 10.803,11.995c3.104,-1.035 5.828,-5.927 6.926,-8.671c0.738,-1.846 2.361,-4.55 1.662,-6.649c-4.589,-13.766 -24.238,-9.412 -20.499,5.541c2.278,9.116 17.138,0.48 13.851,-6.095c-0.514,-1.028 -2.345,-1.662 -3.325,-1.662c-1.42,0 -3.737,-0.451 -5.028,0.194c-0.951,0.476 -3.652,5.162 -2.174,5.901c1.392,0.696 3.417,-0.404 3.878,-1.662" style="fill:none;stroke:black;stroke-width:1px;"/>
    <path d="M303.38,204.839c-7.518,-9.907 -6.505,-28.753 -20.499,-34.351c-6.852,-2.741 -14.682,6.489 -10.019,11.152c6.229,6.23 12.759,-5.297 6.694,-8.936c-8.101,-4.861 -11.893,5.362 -2.77,8.311" style="fill:none;stroke:black;stroke-width:1px;"/>
    <path d="M304.488,211.487c-1.394,-13.943 1.613,-27.805 8.865,-39.891c1.677,-2.796 4.688,-8.14 8.311,-8.865c4.609,-0.921 8.811,3.485 7.202,8.311c-0.94,2.82 -4.108,5.378 -6.648,6.649c-1.736,0.867 -6.858,1.589 -7.757,-1.109c-3.017,-9.052 21.26,-19.318 16.067,-7.202l-2.216,4.432c-0.766,1.592 -1.44,2.687 -2.77,3.879" style="fill:none;stroke:black;stroke-width:1px;"/>
    <path d="M256.841,260.243c1.177,1.682 3.678,-2.382 4.432,-3.325c3.446,-4.306 6.912,-8.705 9.973,-13.297c0.85,-1.276 1.592,-2.63 2.216,-3.878c0.324,-0.648 -0.554,-3.067 -0.554,-1.662" style="fill:none;stroke:black;stroke-width:1px;"/>
    <path d="M314.461,386.564c-2.628,13.796 -0.777,26.977 2.216,40.445c0.511,2.299 4.523,11.544 2.216,13.851c-2.345,2.346 -13.921,3.913 -18.283,6.094c-0.589,0.295 -6.649,2.601 -6.649,3.325c0,0.556 5.228,-2.614 5.541,-2.771c2.689,-1.344 6.704,-2.826 8.865,-4.986" style="fill:none;stroke:black;stroke-width:1px;"/>
    <path d="M320.555,437.536c-3.644,5.83 -8.609,11.123 -11.634,17.175c-0.578,1.156 -2.771,3.719 -2.771,4.986c0,0.924 1.108,-1.477 1.663,-2.216c0.783,-1.045 1.846,-1.847 2.77,-2.77" style="fill:none;stroke:black;stroke-width:1px;"/>
    <path d="M324.988,436.982c-4.334,4.164 -4.989,6.106 -6.095,11.634c-0.649,3.247 -0.14,7.691 2.771,3.325" style="fill:none;stroke:black;stroke-width:1px;"/>
    <path d="M352.69,379.361c-0,14.001 6.364,28.027 11.081,40.999c1.342,3.692 2.502,7.412 3.878,11.081c0.759,2.024 2.216,6.095 2.216,6.095c0,-0 -0.739,-1.478 -1.108,-1.108c-2.645,2.644 -3.927,10.315 -4.432,13.851c-0.25,1.745 -0.701,3.356 -1.108,4.986c-0.269,1.075 -0,3.324 -0,3.324c-0,0 0.738,-2.216 1.108,-3.324" style="fill:none;stroke:black;stroke-width:1px;"/>
    <path d="M372.081,433.103c1.258,6.379 6.152,10.418 9.973,15.513c1.286,1.715 2.224,3.707 3.324,5.541c0.638,1.062 2.538,4.2 1.662,3.324c-0.761,-0.761 -1.064,-1.874 -1.662,-2.77" style="fill:none;stroke:black;stroke-width:1px;"/>
    <path d="M370.419,436.982c5.893,3.115 12.276,5.336 18.838,6.648c2.426,0.485 4.803,1.062 7.202,1.662c1.766,0.442 1.545,0.515 3.324,1.108l1.108,0c-1.626,0 -2.958,0.183 -4.432,-0.554" style="fill:none;stroke:black;stroke-width:1px;"/>
    <path d="M275.678,221.46c-0.636,0.557 -4.815,3.43 -5.54,5.54c-2.752,8.011 5.161,13.571 11.635,15.513c9.527,2.859 21.445,-1.922 23.823,-12.189c2.197,-9.481 -7.112,-18.444 -16.621,-16.067c-4.451,1.113 -7.615,4.699 -9.973,8.311c-2.105,3.226 -5.386,9.301 -3.324,13.297c6.776,13.131 29.214,-1.41 23.27,-13.297c-4.612,-9.224 -17.256,1.749 -13.657,8.948c2.135,4.271 14.429,-2.971 11.995,-7.84c-2.391,-4.781 -13.556,3.878 -4.433,3.878" style="fill:none;stroke:black;stroke-width:1px;"/>
    <path d="M375.96,301.796c3.526,7.01 8.566,10.377 15.513,13.851c0.633,0.317 7.943,3.518 7.202,0.554c-1.049,-4.197 -5.991,-8.755 -8.864,-11.635c-0.763,-0.764 -4.433,-2.679 -4.433,-3.878c0,-1.094 6.499,1.612 6.649,1.662c2.508,0.836 13.097,2.061 14.405,-0.554c1.833,-3.666 -8.865,-7.915 -10.527,-8.865c-1.459,-0.834 -4.149,-2.757 -3.878,-2.216c0.636,1.272 3.356,2.309 4.432,2.77c1.702,0.729 1.539,0.554 3.324,0.554c9.974,0 -0.161,-13.886 -4.986,-6.648" style="fill:none;stroke:black;stroke-width:1px;"/>
    <path d="M259.057,294.593c-8.211,0 -16.237,1.061 -23.824,4.432c-0.398,0.178 -6.648,2.47 -6.648,2.771c-0,0.321 3.563,0.514 3.878,0.554c4.126,0.516 8.1,1.535 12.189,2.216c0.521,0.087 3.234,0.18 2.77,1.108c-0.615,1.231 -3.409,1.321 -4.432,1.662c-4.614,1.538 -8.201,3.99 -12.189,6.649c-0.114,0.075 -3.966,3.081 -2.77,3.878c3.303,2.202 10.95,1.706 14.405,0.554c1.334,-0.445 2.544,-1.217 3.878,-1.662c0.722,-0.241 2.978,-0.554 2.216,-0.554c-2.629,-0 -4.287,0.313 -6.648,1.662c-1.774,1.014 -2.981,2.488 -4.433,3.878c-1.229,1.178 -1.418,1.974 -2.216,3.324c-0.63,1.066 -1.519,1.346 -1.662,2.771c-0.669,6.687 12.189,3.409 12.189,-0.554" style="fill:none;stroke:black;stroke-width:1px;"/>
    <path d="M264.597,282.404c5.725,-9.813 13.314,-18.812 21.054,-27.148c3.056,-3.291 6.275,-6.829 9.419,-9.972c1.946,-1.947 2.37,0.4 1.108,1.662" style="fill:none;stroke:black;stroke-width:1px;"/>
</svg>
