<?xml version="1.0" encoding="UTF-8" standalone="no"?>
<!DOCTYPE svg PUBLIC "-//W3C//DTD SVG 1.1//EN" "http://www.w3.org/Graphics/SVG/1.1/DTD/svg11.dtd">
<svg width="800px" height="600px" version="1.1" xmlns="http://www.w3.org/2000/svg" xmlns:xlink="http://www.w3.org/1999/xlink" xml:space="preserve" xmlns:serif="http://www.serif.com/" style="fill-rule:evenodd;clip-rule:evenodd;stroke-linecap:round;stroke-linejoin:round;stroke-miterlimit:1.5;">
    <path d="M344.379,270.215c1.418,-1.01 -3.853,-5.338 -4.986,-6.094c-5.352,-3.568 -12.834,-6.079 -19.392,-4.986c-9.168,1.528 -18.853,18.853 -25.485,25.485c-2.882,2.882 -5.725,5.799 -8.865,8.311c-0.102,0.082 -4.086,4.432 -3.878,4.432c4.22,0 6.183,-6.072 10.526,-4.986c7.753,1.938 16.476,14.441 25.486,12.189c3.858,-0.964 4.389,-6.689 6.095,-9.419c2.864,-4.584 7.257,-7.4 11.635,-10.527c3.383,-2.417 19.509,-7.836 18.283,-12.743c-1.416,-5.664 -13.18,-8.82 -17.729,-10.526c-16.449,-6.168 -35.401,3.97 -37.675,22.161c-0.486,3.886 -0.784,9.992 1.662,13.297c3.875,5.237 15.666,11.333 19.945,3.879" style="fill:none;stroke:black;stroke-width:1px;"/>
    <path d="M302.826,271.323c-10.669,6.669 -11.055,26.046 2.216,31.581c4.893,2.04 14.804,3.686 16.622,-3.324" style="fill:none;stroke:black;stroke-width:1px;"/>
    <path d="M301.718,272.432c-0.45,0.552 -3.645,4.409 -3.878,4.986c-2.998,7.408 4.159,21.468 11.081,24.932c7.203,3.604 13.851,0.936 13.851,-7.203" style="fill:none;stroke:black;stroke-width:1px;"/>
    <path d="M299.502,275.202c-1.155,8.905 3.477,17.092 11.081,22.161c6.006,4.005 12.786,5.236 15.513,-2.77" style="fill:none;stroke:black;stroke-width:1px;"/>
    <path d="M331.082,260.243c7.204,5.205 9.845,12.929 7.203,21.607c-1.671,5.486 -8.865,9.536 -8.865,1.108" style="fill:none;stroke:black;stroke-width:1px;"/>
    <path d="M340.501,263.013c1.198,4.791 2.997,11.583 1.108,16.621c-0.233,0.623 -4.74,12.655 -6.648,7.203" style="fill:none;stroke:black;stroke-width:1px;"/>
    <path d="M344.379,267.999c1.633,4.471 1.116,21.335 -7.202,17.175" style="fill:none;stroke:black;stroke-width:1px;"/>
    <path d="M347.703,268.553c6.963,5.784 6.254,12.941 -2.216,17.176" style="fill:none;stroke:black;stroke-width:1px;"/>
    <path d="M315.015,269.661l0,7.203c0,2.596 6.319,-6.02 2.77,-7.203c-3.938,-1.313 -5.54,8.086 -5.54,9.973c-0,1.108 -0.991,2.829 -0,3.324c3.413,1.707 10.102,-11.506 7.756,-13.851c-1.249,-1.249 -3.296,0.968 -3.616,1.929c-0.907,2.721 -4.073,7.624 -2.478,10.814c0.576,1.153 3.714,-1.457 3.878,-1.662c0.897,-1.121 5.329,-9.489 2.216,-10.527c-4.753,-1.584 -6.22,9.356 -2.77,11.081c3.169,1.585 2.639,-4.886 1.108,-6.094" style="fill:none;stroke:black;stroke-width:1px;"/>
    <path d="M285.097,260.243c-0,-15.767 3.342,-21.342 13.851,-33.603c2.357,-2.75 6.748,-7.718 10.186,-8.864c2.204,-0.734 4.488,-0.533 4.219,2.022" style="fill:none;stroke:black;stroke-width:1px;"/>
    <path d="M286.759,264.121c-0.345,-12.158 3.251,-18.764 11.635,-27.148c3.699,-3.699 6.373,-5.739 11.081,-7.757c1.214,-0.52 4.195,-1.557 3.878,0.554" style="fill:none;stroke:black;stroke-width:1px;"/>
    <path d="M287.867,254.702c3.114,-8.162 6.787,-14.532 13.297,-20.499c1.223,-1.121 10.527,-10.688 10.527,-4.433" style="fill:none;stroke:black;stroke-width:1px;"/>
    <path d="M287.313,245.838c1.137,-1.667 2.253,-3.348 3.41,-5c4.489,-6.414 9.071,-11.985 15.427,-16.608c4.683,-3.406 7.203,-2.94 7.203,2.77" style="fill:none;stroke:black;stroke-width:1px;"/>
    <path d="M287.313,237.527c8.031,-8.194 17.874,-20.5 30.472,-20.5" style="fill:none;stroke:black;stroke-width:1px;"/>
    <path d="M346.595,234.203c0.037,0.551 1.108,26.963 1.108,12.743l0,-2.771" style="fill:none;stroke:black;stroke-width:1px;"/>
    <path d="M349.92,230.878c0.369,8.865 0.597,17.737 1.108,26.594c0.061,1.063 0.517,2.752 1.662,3.325c1.547,0.773 1.568,-5.07 1.662,-5.541" style="fill:none;stroke:black;stroke-width:1px;"/>
    <path d="M352.136,229.77c0.988,5.975 1.953,11.953 2.964,17.924c1.057,6.245 -0.795,23.122 3.684,18.643c0.653,-0.653 0,-1.847 0,-2.77" style="fill:none;stroke:black;stroke-width:1px;"/>
    <path d="M353.798,235.865c0.721,4.1 5.231,29.993 6.094,33.796c0.132,0.58 2.217,4.274 2.217,1.662" style="fill:none;stroke:black;stroke-width:1px;"/>
    <path d="M355.46,323.403c-9.04,7.031 -20.647,14.194 -27.702,23.27c-2.085,2.682 -4.422,6.031 -4.986,9.419c-0.54,3.239 1.177,4.047 3.324,1.662" style="fill:none;stroke:black;stroke-width:1px;"/>
    <path d="M348.812,326.728c-6.095,6.514 -12.21,13.009 -18.284,19.543c-6.115,6.579 -12.28,13.113 -18.283,19.793c-0.669,0.745 2.19,-0.792 2.77,-1.662" style="fill:none;stroke:black;stroke-width:1px;"/>
    <path d="M326.096,340.025c-1.795,3.378 -13.033,19.655 -8.311,24.377" style="fill:none;stroke:black;stroke-width:1px;"/>
    <path d="M388.148,219.798c-1.011,-2.731 -2.054,-5.343 -1.662,-8.311c0.309,-2.332 1.909,-3.375 3.325,-4.986c5.437,-6.19 13.205,-14.405 22.161,-14.405" style="fill:none;stroke:black;stroke-width:1px;"/>
    <path d="M389.811,223.676c2.567,-3.858 12.401,-21.999 17.175,-24.932c4.342,-2.668 10.527,-4.455 10.527,2.216" style="fill:none;stroke:black;stroke-width:1px;"/>
    <path d="M394.243,209.271c5.476,-1.611 10.942,-3.254 16.427,-4.834c12.562,-3.62 19.956,-9.047 15.153,-2.923" style="fill:none;stroke:black;stroke-width:1px;"/>
    <path d="M408.648,200.406c4.432,4.391 8.885,8.761 13.297,13.173c8.585,8.585 19.863,13.975 10.527,13.975" style="fill:none;stroke:black;stroke-width:1px;"/>
    <path d="M416.959,197.082c15.396,24.635 31.35,33.418 16.621,30.472" style="fill:none;stroke:black;stroke-width:1px;"/>
    <path d="M420.283,198.744c7.018,9.049 14.035,18.099 21.053,27.148" style="fill:none;stroke:black;stroke-width:1px;"/>
    <path d="M397.567,263.567c-10.121,-2.458 0.27,-14.125 6.095,-16.621c5.285,-2.266 11.149,1.294 16.067,2.77c3.512,1.053 7.992,1.108 11.635,1.108c4.418,-0 9.015,0.038 13.297,1.108c0.658,0.165 8.618,2.216 6.094,2.216" style="fill:none;stroke:black;stroke-width:1px;"/>
    <path d="M401.445,247.5c1.078,10.24 2.358,20.757 6.095,30.472c0.972,2.527 7.202,17.273 7.202,7.202" style="fill:none;stroke:black;stroke-width:1px;"/>
    <path d="M398.675,253.594c10.278,10.055 14.143,14.117 24.168,23.047c1.759,1.565 3.43,4.5 5.75,4.101c7.464,-1.284 13.696,-14.728 15.603,-20.449c2.286,-6.859 -0.524,-10.269 -7.292,-8.915" style="fill:none;stroke:black;stroke-width:1px;"/>
    <path d="M411.972,255.256c0.613,1.686 3.038,13.297 6.095,13.297" style="fill:none;stroke:black;stroke-width:1px;"/>
    <path d="M413.08,249.716c2.285,2.797 4.56,5.601 6.853,8.39c1.575,1.916 3.146,3.835 4.752,5.724c0.727,0.855 1.225,2.971 2.246,2.507c5.966,-2.709 7.636,-13.551 2.77,-17.729" style="fill:none;stroke:black;stroke-width:1px;"/>
    <path d="M426.931,248.608c-0.923,2.585 -1.601,5.272 -2.77,7.756c-2.662,5.658 -8.865,3.678 -8.865,-2.216" style="fill:none;stroke:black;stroke-width:1px;"/>
    <path d="M426.377,254.148c-2.456,1.847 -6.262,5.681 -9.418,6.649c-3.038,0.931 -7.399,-5.898 -4.987,-8.311" style="fill:none;stroke:black;stroke-width:1px;"/>
    <path d="M424.161,253.04c-1.707,1.472 -7.738,8.392 -10.644,8.392c-1.918,0 -1.158,-4.929 0.671,-5.622" style="fill:none;stroke:black;stroke-width:1px;"/>
    <path d="M423.607,250.824c-3.324,0.739 -6.648,1.477 -9.973,2.216" style="fill:none;stroke:black;stroke-width:1px;"/>
    <path d="M423.053,248.608c-4.248,2.77 -8.495,5.54 -12.743,8.31" style="fill:none;stroke:black;stroke-width:1px;"/>
    <path d="M398.121,249.716c1.77,5.841 5.897,19.642 8.087,26.319c1.249,3.806 0.689,4.504 2.938,6.19c5.311,3.983 13.636,4.612 20.001,4.612c3.629,-0 9.18,2.608 7.203,-3.325" style="fill:none;stroke:black;stroke-width:1px;"/>
    <path d="M346.041,367.727c-1.477,0.554 -2.99,1.021 -4.432,1.662c-2.145,0.953 0.736,3.508 1.662,3.878c2.473,0.989 6.335,1.019 8.865,-0c10.275,-4.141 15.57,-16.096 25.486,-21.054c7.888,-3.944 17.141,-1.381 25.486,-2.216c5.848,-0.585 10.857,-3.609 16.621,-4.432c9.163,-1.309 14.611,3.291 21.607,8.311c1.974,1.415 4.798,2.923 7.203,3.324c1.697,0.283 4.531,-0.658 1.662,-1.662" style="fill:none;stroke:black;stroke-width:1px;"/>
    <path d="M364.879,364.956c14.201,-7.746 27.872,-8.635 43.769,-11.08c5.849,-0.9 11.267,-1.663 17.175,-1.663c0.469,0 4.05,-0.383 4.433,0c0.587,0.588 -2.659,1.071 -2.771,1.108" style="fill:none;stroke:black;stroke-width:1px;"/>
    <path d="M368.203,364.956c13.326,-1.025 26.575,-2.854 39.891,-3.878c3.88,-0.298 7.728,-0.554 11.635,-0.554l6.094,0c0,0 -2.258,0.199 -3.324,0.554" style="fill:none;stroke:black;stroke-width:1px;"/>
    <path d="M380.946,366.618c12.928,-0.184 25.858,-0.23 38.783,-0.554c1.055,-0.026 15.151,-1.662 6.648,-1.662" style="fill:none;stroke:black;stroke-width:1px;"/>
    <path d="M383.162,348.335c2.233,4.466 3.783,9.592 4.986,14.405c0.501,2.004 0.062,5.048 1.663,6.649c0.918,0.918 1.108,-4.401 1.108,-4.433" style="fill:none;stroke:black;stroke-width:1px;"/>
    <path d="M399.229,344.457c0.924,7.387 1.89,14.769 2.77,22.161c0.162,1.362 1.109,1.286 1.109,0" style="fill:none;stroke:black;stroke-width:1px;"/>
    <path d="M412.526,343.903c-0.821,18.481 -2.625,29.338 -0.554,21.053" style="fill:none;stroke:black;stroke-width:1px;"/>
    <path d="M424.161,345.565c-0.739,5.725 -1.477,11.45 -2.216,17.175" style="fill:none;stroke:black;stroke-width:1px;"/>
    <path d="M373.743,323.403c-0.834,-0.615 5.306,-6.255 6.649,-7.202c4.864,-3.432 15.478,-6.684 20.499,-1.662" style="fill:none;stroke:black;stroke-width:1px;"/>
    <path d="M378.176,319.525c8.68,-2.401 17.36,-4.802 26.04,-7.203" style="fill:none;stroke:black;stroke-width:1px;"/>
    <path d="M379.284,323.957c4.75,-2.473 19.046,-9.988 23.824,-12.189c0.732,-0.337 2.77,-0.31 2.77,0.554" style="fill:none;stroke:black;stroke-width:1px;"/>
    <path d="M400.891,319.525c1.139,-4.555 0.839,-4.519 2.771,-8.865c1.139,-2.564 0.619,-2.554 1.662,-4.986c0.682,-1.593 1.669,-6.102 2.77,-7.203c0.851,-0.85 1.642,3.739 1.662,3.879c0.553,3.871 0.682,10.143 -0.554,13.851c-0.115,0.344 -3.172,7.909 -4.986,6.094c-3.347,-3.347 1.529,-12.204 2.77,-15.513c0.192,-0.511 3.401,-8.234 4.432,-7.202c1.473,1.472 -0.676,6.281 -1.108,7.756c-1.621,5.535 -4.939,14.381 -10.527,17.175" style="fill:none;stroke:black;stroke-width:1px;"/>
    <path d="M373.189,300.688c-2.146,7.739 0.912,14.012 4.433,21.053c0.888,1.777 6.945,7.357 8.31,3.324" style="fill:none;stroke:black;stroke-width:1px;"/>
    <path d="M373.743,308.998c2.138,3.372 4.265,6.752 6.414,10.116c1.448,2.265 11.609,19.303 14.64,7.614" style="fill:none;stroke:black;stroke-width:1px;"/>
    <path d="M369.865,316.755c5.91,-0.739 11.82,-1.478 17.729,-2.216" style="fill:none;stroke:black;stroke-width:1px;"/>
    <path d="M464.606,280.742c6.832,17.08 9.736,32.998 8.311,51.526c-0.478,6.209 -1.416,12.188 -2.771,18.283c-0.895,4.03 -3.054,6.891 -3.878,2.77" style="fill:none;stroke:black;stroke-width:1px;"/>
    <path d="M468.484,299.025c0.134,8.196 0.283,16.391 0.402,24.586c0.28,19.263 -0.997,28.596 -3.726,46.332c-0.439,2.851 -0.714,11.241 -2.77,13.297" style="fill:none;stroke:black;stroke-width:1px;"/>
    <path d="M288.421,336.7c8.202,20.044 22.731,41.27 38.783,55.958c6.079,5.563 11.868,11.186 18.837,15.514c0.566,0.351 10.781,7.437 7.203,2.77" style="fill:none;stroke:black;stroke-width:1px;"/>
    <path d="M285.097,344.457c11.122,19.066 23.1,40.797 38.783,56.512c5.039,5.049 11.279,8.812 17.175,12.743c2.243,1.495 12.375,8.004 7.202,1.108" style="fill:none;stroke:black;stroke-width:1px;"/>
    <path d="M291.191,356.092c8.025,13.211 15.44,29.808 28.221,39.394c4.108,3.081 7.9,5.519 12.778,7.145c1.257,0.419 3.071,1.451 2.771,-0.554" style="fill:none;stroke:black;stroke-width:1px;"/>
    <path d="M290.637,306.228c-3.88,16.816 -5.54,33.735 -5.54,50.972c-0,1.477 -0.092,2.958 -0,4.432c0.252,4.03 1.033,7.343 2.216,11.081c0.498,1.575 1.694,5.999 2.216,4.432c0.413,-1.239 0.237,-2.611 0.554,-3.878" style="fill:none;stroke:black;stroke-width:1px;"/>
    <path d="M288.975,325.065c3.313,38.287 6.095,78.138 6.095,46.54" style="fill:none;stroke:black;stroke-width:1px;"/>
    <path d="M295.624,338.362c1.108,11.266 2.216,22.531 3.324,33.797" style="fill:none;stroke:black;stroke-width:1px;"/>
    <path d="M281.219,311.214c-6.346,-7.139 -12.028,-13.384 -21.608,-15.513c-1.469,-0.326 -7.484,-2.488 -8.865,-1.108c-0.312,0.313 0,4.203 0,4.432c0,5.763 1.121,12.428 4.139,17.459c0.218,0.362 3.888,8.311 4.172,8.027c0.398,-0.397 0.066,-3.478 0.066,-4.126c-0,-4.885 -3.37,-10.923 -6.161,-14.711c-0.33,-0.448 -5.136,-3.983 -5.54,-2.77c-1.453,4.36 3.222,10.283 5.54,13.297c5.508,7.159 16.816,18.837 26.594,18.837" style="fill:none;stroke:black;stroke-width:1px;"/>
    <path d="M266.813,307.89c2.124,6.025 4.27,12.043 6.372,18.076c2.145,6.156 4.356,12.291 6.371,18.491c1.202,3.696 -1.843,-0.725 -2.216,-2.216" style="fill:none;stroke:black;stroke-width:1px;"/>
    <path d="M272.354,313.985c0.739,11.265 1.477,22.531 2.216,33.796" style="fill:none;stroke:black;stroke-width:1px;"/>
    <path d="M262.935,318.417c1.657,2.95 9.703,13.413 9.419,17.729c-0.531,8.065 -1.112,15.181 2.77,22.716c1.151,2.233 3.081,7.154 6.095,7.756c7.273,1.455 9.617,-14.573 9.972,-18.837l0,-6.094c0,-0.385 -0.543,-7.214 -2.77,-4.987c-3.277,3.278 -3.324,12.77 -3.324,16.621c-0,8.796 2.038,32.449 17.293,22.279c1.963,-1.308 3.689,-2.949 5.423,-4.549c3.492,-3.224 6.108,-6.081 7.756,-10.527" style="fill:none;stroke:black;stroke-width:1px;"/>
    <path d="M293.407,349.997c-1.236,3.339 -3.351,7.923 -2.216,11.635c1.231,4.024 7.377,11.901 12.189,8.311c1.95,-1.455 1.662,-6.348 1.662,-8.311" style="fill:none;stroke:black;stroke-width:1px;"/>
    <path d="M302.272,355.538c5.725,11.08 11.517,22.127 17.175,33.242c0.489,0.96 -1.108,-1.847 -1.662,-2.77" style="fill:none;stroke:black;stroke-width:1px;"/>
    <path d="M312.799,377.145c16.99,17.73 33.981,35.459 50.972,53.188c4.262,4.448 10.085,7.259 15.513,9.973c2.952,1.476 8.426,4.986 11.635,4.986c0.665,0 -0.638,-1.191 -1.108,-1.662" style="fill:none;stroke:black;stroke-width:1px;"/>
    <path d="M344.933,405.401c13.335,8.599 30.148,22.929 45.432,28.81c5.358,2.063 25.089,4.7 24.377,-6.094" style="fill:none;stroke:black;stroke-width:1px;"/>
    <path d="M360.446,413.712c6.293,3.31 12.57,6.653 18.879,9.931c4.458,2.316 8.935,4.596 13.424,6.851c2.297,1.154 4.482,2.852 7.034,3.163c6.195,0.757 20.376,-1.696 21.608,-9.972c0.534,-3.586 -0.304,-8.143 -0.554,-11.635" style="fill:none;stroke:black;stroke-width:1px;"/>
    <path d="M377.068,431.441c10.157,-7.756 20.314,-15.513 30.472,-23.269" style="fill:none;stroke:black;stroke-width:1px;"/>
    <path d="M303.38,202.622c-4.416,-15.641 7.655,-27.714 18.838,-37.674c4.137,-3.686 8.864,-7.984 14.095,-10.076c2.653,-1.061 4.972,-1.296 4.742,1.765" style="fill:none;stroke:black;stroke-width:1px;"/>
    <path d="M311.691,204.285c13.851,-15.329 27.702,-30.657 41.553,-45.986" style="fill:none;stroke:black;stroke-width:1px;"/>
    <path d="M320.555,189.325c3.329,-2.923 12.242,-10.804 16.315,-14.211c0.999,-0.836 1.917,-1.817 3.077,-2.41c0.368,-0.188 0.879,0.898 1.108,0.554c3.773,-5.659 5.205,-13.451 6.648,-19.945c1.388,-6.243 3.522,-12.227 5.541,-18.284c0.025,-0.075 3.6,-7.205 3.878,-6.094c2.595,10.378 -2.761,24.89 -4.986,34.905c-0.331,1.486 -0.69,2.968 -1.108,4.432c-0.321,1.123 -0.773,2.205 -1.108,3.324c-2.819,9.394 2.757,-6.326 3.324,-8.31" style="fill:none;stroke:black;stroke-width:1px;"/>
    <path d="M365.987,127.273c-4.128,12.062 -12.912,37.839 -17.175,49.864c-0.247,0.696 -0.105,-1.485 -0,-2.217c0.266,-1.864 0.684,-3.705 1.108,-5.54c0.302,-1.31 0.738,-2.586 1.108,-3.878" style="fill:none;stroke:black;stroke-width:1px;"/>
    <path d="M376.514,132.813c-3.971,7.087 -7.912,14.191 -11.912,21.262c-9.056,16.006 -12.548,29.03 -11.912,18.075" style="fill:none;stroke:black;stroke-width:1px;"/>
    <path d="M383.716,134.475c-4.691,6.367 -9.357,12.753 -14.073,19.101c-4.887,6.579 -9.743,13.183 -14.737,19.682c-0.811,1.056 -2.383,3.158 -3.324,2.216c-1.239,-1.238 1.011,-3.359 1.662,-4.986" style="fill:none;stroke:black;stroke-width:1px;"/>
    <path d="M389.811,137.8c-7.543,10.948 -10.537,15.413 -17.752,25.515c-1.216,1.704 -1.991,4.007 -3.856,4.957c-7.708,3.927 -13.498,6.546 -11.635,-2.77" style="fill:none;stroke:black;stroke-width:1px;"/>
    <path d="M402.553,142.786c-5.777,4.315 -18.858,14.143 -25.523,18.933c-2.404,1.727 -18.888,11.25 -15.476,1.012" style="fill:none;stroke:black;stroke-width:1px;"/>
    <path d="M401.999,142.786c-6.648,7.941 -13.297,15.883 -19.945,23.824" style="fill:none;stroke:black;stroke-width:1px;"/>
    <path d="M410.864,145.556c-2.566,6.159 -6.13,12.884 -7.756,19.392c-0.273,1.089 -0.334,2.222 -0.555,3.324c-1.265,6.327 3.702,2.105 6.095,-3.878" style="fill:none;stroke:black;stroke-width:1px;"/>
    <path d="M411.972,148.326c0.458,0.836 5.763,12.959 8.144,13.422c1.846,0.359 1.34,-3.547 2.383,-5.111c1.593,-2.39 3.174,-5.467 5.54,-7.203c4.229,-3.101 9.176,-6.614 14.405,-7.756c1.637,-0.358 6.452,-0.864 6.095,1.662" style="fill:none;stroke:black;stroke-width:1px;"/>
    <path d="M406.986,178.245c5.794,-7.876 9.586,-14.725 18.837,-18.284c0.976,-0.375 19.762,-4.605 11.635,0" style="fill:none;stroke:black;stroke-width:1px;"/>
    <path d="M410.864,175.474c8.68,-5.171 17.36,-10.342 26.04,-15.513" style="fill:none;stroke:black;stroke-width:1px;"/>
    <path d="M413.08,177.691c5.661,-2.905 11.31,-5.83 16.982,-8.713c12.698,-6.453 20.83,-13.6 15.707,-6.801" style="fill:none;stroke:black;stroke-width:1px;"/>
    <path d="M426.377,179.907c0.797,-0.427 27.148,-14.998 27.148,-13.851" style="fill:none;stroke:black;stroke-width:1px;"/>
    <path d="M428.593,184.893c3.977,-1.547 22.176,-8.678 26.04,-9.973c1.593,-0.533 4.987,-1.613 4.987,0.554" style="fill:none;stroke:black;stroke-width:1px;"/>
    <path d="M440.228,187.663c7.757,1.478 15.513,2.955 23.27,4.433" style="fill:none;stroke:black;stroke-width:1px;"/>
    <path d="M460.174,262.459c-0.187,0.271 -1.348,2.031 -1.662,2.216c-0.282,0.166 1.487,-5.814 1.662,-6.094c1.223,-1.958 7.628,-11.407 11.635,-8.865c3.808,2.416 -3.018,10.975 -4.433,12.743c-0.652,0.816 -2.216,2.216 -2.216,2.216c0,-0 2.216,-1.847 3.324,-2.77c1.523,-1.269 6.637,-4.738 8.865,-3.324c1.512,0.959 0.434,4.938 -0,6.094c-1.504,4.011 -13.851,22.025 -13.851,9.973" style="fill:none;stroke:black;stroke-width:1px;"/>
    <path d="M463.498,256.364c1.477,8.126 2.955,16.252 4.432,24.378" style="fill:none;stroke:black;stroke-width:1px;"/>
    <path d="M461.282,259.689c2.272,9.09 2.868,8.656 6.648,17.729" style="fill:none;stroke:black;stroke-width:1px;"/>
    <path d="M442.444,207.055c2.217,-1.662 4.3,-3.518 6.649,-4.987c0.7,-0.437 1.499,-0.698 2.216,-1.108c11.034,-6.305 -0.367,6.535 -2.77,9.419c-0.183,0.219 -3.047,4.848 -2.77,4.986c2.606,1.304 8.67,-5.574 9.972,-7.202c1.206,-1.507 0.955,-1.509 2.217,-2.77l1.108,-1.108c-0,3.384 -6.809,10.847 -8.311,13.851c-0.339,0.678 -3.06,5.804 -2.216,6.648c1.123,1.123 1.962,-2.51 2.77,-3.878c1.738,-2.944 4.01,-5.804 5.54,-8.865c0.814,-1.627 2.217,-4.986 2.217,-4.986c-0,-0 -1.847,5.54 -2.771,8.31c-1.372,4.117 -5.465,15.11 -3.324,19.392c0.541,1.081 3.141,-2.512 3.324,-2.77c2.762,-3.903 4.766,-6.983 6.095,-11.635c0.321,-1.123 2.234,-3.015 1.108,-3.325c-1.108,-0.304 -3.692,7.003 -3.878,7.757c-2.017,8.156 -2.216,17.146 -2.216,25.486c-0,0.777 -0.31,9.728 2.216,7.202" style="fill:none;stroke:black;stroke-width:1px;"/>
    <path d="M444.661,198.744c2.634,-3.951 4.916,-7.848 7.756,-11.635c0.116,-0.154 4.351,-6.094 3.878,-6.094c-4.064,-0 -9.855,8.184 -13.297,10.527c-1.991,1.355 -1.792,1.379 -3.878,2.77c-1.031,0.687 -3.716,2.837 -3.324,1.662c1.406,-4.219 6.577,-10.451 9.727,-13.601c0.227,-0.227 3.048,-4.088 3.016,-4.128c-0.89,-1.136 -2.229,1.831 -3.324,2.77c-3.074,2.634 -5.677,5.237 -8.311,8.31l-3.324,3.325c-0.327,0.408 -1.342,1.575 -1.108,1.108c2.979,-5.96 8.047,-10.437 9.972,-17.176c0.158,-0.55 1.684,-3.153 1.108,-3.878c-0.639,-0.805 -3.75,2.088 -3.878,2.216c-2.286,2.287 -4.844,5.051 -6.648,7.757c-0.739,1.108 -1.275,4.266 -2.216,3.324c-0.974,-0.973 1.347,-3.803 1.662,-4.432c0.829,-1.659 5.092,-13.745 3.878,-14.959c-0.653,-0.653 -1.639,0.941 -2.216,1.662c-1.656,2.069 -2.501,4.177 -3.324,6.648c-0.426,1.276 -1.109,3.879 -1.109,3.879l0,-3.879c0,-2.848 0.403,-6.049 0,-8.864c-0.08,-0.566 -1.152,-4.942 -2.216,-3.879c-1.555,1.556 -0.554,7.423 -0.554,9.419l0,5.541c0,-0 -0.231,-2.979 -0.554,-4.433c-0.563,-2.536 -0.358,-4.96 -1.066,-7.438c-2.019,-7.064 -2.914,-19.257 -8.352,-24.696c-1.132,-1.132 -1.109,7.665 -1.109,7.756c0,5.364 -0.043,9.843 1.663,14.96c0.639,1.917 0.502,1.778 1.662,3.324c0.247,0.33 0.554,1.521 0.554,1.108c-0,-6.132 -2.632,-12.772 -5.801,-18.054c-0.284,-0.472 -2.969,-5.635 -3.618,-4.662c-1.097,1.646 -1.293,4.804 -1.662,6.649" style="fill:none;stroke:black;stroke-width:1px;"/>
    <path d="M397.013,155.529c-4.219,-0.514 -6.077,2.599 -9.419,4.986c-0.073,0.053 -2.77,2.216 -3.324,1.662c-0.087,-0.086 3.244,-3.771 3.324,-3.878c2.299,-3.065 4.963,-5.728 7.203,-8.865c0.181,-0.253 3.814,-5.209 2.77,-5.54c-2.051,-0.65 -5.526,3.616 -6.648,4.432c-4.278,3.111 -8.412,6.387 -12.743,9.419c-1.096,0.767 -4.668,3.878 -6.095,3.878c-0.923,0 1.009,-1.563 1.662,-2.216c1.293,-1.293 2.586,-2.585 3.879,-3.878c2.449,-2.449 2.301,-2.284 4.986,-4.432c2.959,-2.367 6.231,-5.123 8.865,-7.757c0.994,-0.994 -2.708,0.882 -3.879,1.662c-2.09,1.394 -4.004,3.039 -6.094,4.432c-4.617,3.078 -8.812,6.711 -13.297,9.973c-1.048,0.762 -5.042,4.433 -6.649,4.433c-0.923,-0 1.062,-1.516 1.663,-2.217c2.298,-2.681 4.392,-5.603 6.648,-8.31c0.139,-0.167 2.791,-3.879 2.77,-3.879c-0.982,0 -3.455,3.889 -3.878,4.433c-3.656,4.7 -7.74,8.845 -11.635,13.297c-0.152,0.173 -4.25,4.796 -4.432,4.432c-1.714,-3.427 1.797,-9.825 2.77,-12.743c0.718,-2.155 0.094,-2.132 0.554,-4.432c0.115,-0.573 0.815,-2.185 0.554,-1.662c-3.003,6.007 -4.472,12.695 -7.202,18.837c-0.671,1.51 -0.565,4.432 -2.217,4.432c-0.956,0 1.059,-5.886 1.108,-6.094c1.317,-5.497 1.663,-11.005 1.663,-16.621c-0,-1.162 0.331,-3.713 -1.108,-4.433c-1.641,-0.82 -3.686,6.765 -4.195,7.782c-2.75,5.501 -3.831,12.416 -5.778,18.258c-0.739,2.217 -2.216,6.649 -2.216,6.649c-0,-0 0.706,-4.438 1.108,-6.649c1.021,-5.615 0.554,-11.478 0.554,-17.175c-0,-1.096 0.417,-3.461 -0.554,-4.432c-0.51,-0.51 -1.631,5.381 -1.662,5.54c-0.753,3.763 -1.224,13.413 -3.879,16.067c-0.433,0.434 -0.554,-7.12 -0.554,-7.756c0,-4.43 -0.238,-8.393 -1.108,-12.743c-0.164,-0.821 -0.212,-5.092 -1.108,-5.541c-0.474,-0.236 -1.066,6.695 -1.108,7.203c-0.341,4.088 -0.101,8.112 -0.554,12.189c-0.055,0.493 -0.001,5.556 -1.108,5.54c-1.574,-0.023 -2.005,-5.943 -2.216,-6.648c-1.639,-5.463 -2.623,-11.192 -4.433,-16.621c-0.812,-2.436 -0.887,-2.219 -2.216,-4.433c-0.342,-0.571 -0.637,-2.133 -1.108,-1.662c-0.384,0.384 -0.003,5.441 0,5.541c0.174,5.324 3.413,11.834 5.541,16.621c0.948,2.134 2.216,6.648 2.216,6.648c-0,0 -2.887,-4.114 -4.433,-6.094c-2.811,-3.604 -5.031,-7.802 -8.31,-11.081c-0.009,-0.008 -4.762,-4.552 -4.987,-3.878c-1.579,4.739 7.951,18.941 10.527,22.161c1.142,1.428 2.474,2.708 3.878,3.879c0.828,0.689 3.252,2.625 2.771,1.662c-2.43,-4.859 -10.456,-10.932 -14.959,-13.934c-2.102,-1.402 -4.323,-2.799 -6.649,-3.796c-0.759,-0.325 -2.955,-1.477 -2.216,-1.108c5.963,2.982 11.389,7.706 17.175,11.081c2.948,1.72 8.083,3.097 10.527,5.541c1.045,1.044 -2.955,-0 -4.432,-0l-6.649,-0c-5.308,-0.38 -10.794,-1.892 -16.067,-2.771c-1.339,-0.223 -4.657,-1.272 -6.094,-0.554c-1.57,0.785 3.161,5.563 7.161,7.563c3.672,1.836 8.153,3.11 12.23,3.518c1.482,0.148 5.485,1.607 4.432,0.554c-2.343,-2.343 -8.706,-2.216 -11.635,-2.216" style="fill:none;stroke:black;stroke-width:1px;"/>
    <path d="M288.975,198.19c5.324,-1.38 11.549,-3.227 6.649,-0.554c-4.828,2.633 -9.109,6.099 -13.851,8.865c-0.945,0.551 -7.203,3.085 -7.203,4.986c0,0.042 9.618,-4.797 9.973,-4.986c5.768,-3.077 11.524,-6.122 17.175,-9.419c2.513,-1.466 2.35,-1.452 4.986,-2.77c0.523,-0.261 2.076,-0.967 1.663,-0.554c-2.159,2.158 -6.793,3.486 -9.419,4.986c-7.757,4.432 -14.972,9.686 -22.162,14.959c-1.723,1.264 -9.418,5.958 -9.418,8.865c-0,0.826 1.515,-0.67 2.216,-1.108c2.258,-1.412 4.39,-3.021 6.648,-4.433c6.172,-3.857 12.774,-7.038 18.838,-11.08c3.445,-2.297 3.121,-2.473 6.648,-4.433c1.083,-0.601 4.563,-1.662 3.324,-1.662c-1.762,0 -4.837,2.524 -6.094,3.324c-6.535,4.159 -12.379,9.416 -18.283,14.406c-2.497,2.109 -4.475,4.24 -6.649,6.648c-1.05,1.163 -4.891,3.324 -3.324,3.324c2.51,0 6.71,-3.729 8.31,-4.986c4.898,-3.848 9.725,-8.692 14.972,-11.972c2.982,-1.864 5.386,-4.37 8.298,-6.311c0.896,-0.598 3.733,-2.144 2.77,-1.663c-8.156,4.079 -14.533,11.604 -21.053,17.73l-6.649,6.648c-1.388,1.388 -2.49,3.044 -3.878,4.433c-0.369,0.369 -1.604,1.273 -1.108,1.108c6.383,-2.128 12.376,-10.006 17.175,-14.405c1.832,-1.679 3.654,-3.37 5.541,-4.987c1.011,-0.867 3.324,-2.216 3.324,-2.216c-0,0 -2.675,2.12 -3.878,3.324c-2.747,2.747 -2.444,2.716 -4.987,5.541c-3.417,3.796 -7.122,7.362 -10.527,11.08c-0.369,0.404 -3.324,3.475 -3.324,4.433c0,0.45 1.795,-0.687 4.432,-3.324c3.007,-3.007 6.368,-5.369 8.865,-8.865c0.173,-0.242 2.792,-2.813 2.77,-2.77c-3.668,7.337 -10.149,14.994 -14.959,21.607c-0.364,0.502 -4.15,6.577 -4.986,6.649c-0.683,0.059 0.289,-1.421 0.774,-1.905c1.677,-1.677 1.311,-1.688 2.55,-3.636c2.65,-4.164 4.789,-8.786 7.757,-12.743c0.865,-1.153 3.79,-4.344 2.77,-3.324c-3.703,3.703 -6.359,9.633 -8.311,14.405c-1.125,2.751 -0.713,7.916 -2.77,9.973" style="fill:none;stroke:black;stroke-width:1px;"/>
    <path d="M279.556,300.688c-2.4,-2.217 -4.79,-4.445 -7.202,-6.649c-1.566,-1.43 -3.177,-1.814 -4.986,-2.77c-0.953,-0.503 -1.787,-1.225 -2.771,-1.662l-4.432,-1.108c-0.554,-0.185 -1.662,-1.138 -1.662,-0.554c-0,3.602 11.389,6.787 13.851,7.202c0.873,0.147 7.857,1.613 7.857,0.035c-0,-2.156 -4.93,-3.662 -6.195,-4.467c-4.757,-3.027 -9.507,-6.066 -14.405,-8.865c-2.228,-1.273 -4.406,-2.632 -6.649,-3.878c-1.175,-0.653 -4.829,-2.059 -3.878,-1.108c5.384,5.383 13.007,10.87 20.5,12.743c2.733,0.683 2.664,0.143 5.54,0.554c0.754,0.108 2.216,1.315 2.216,0.554c0,-1.099 -3.912,-4.016 -4.432,-4.432c-5.754,-4.603 -11.824,-8.868 -17.729,-13.297c-0.208,-0.156 -6.191,-4.891 -6.649,-4.433c-1.087,1.087 3.958,4.494 4.626,5.028c3.524,2.819 9.741,4.461 14.212,4.391c0.192,-0.003 5.054,0.485 5.54,-0c0.375,-0.375 -4.587,-4.177 -4.986,-4.432c-4.282,-2.736 -12.255,-9.419 -17.176,-9.419c-1.652,-0 2.955,1.477 4.433,2.216c3.653,1.827 6.622,2.282 10.526,2.77c0.343,0.043 2.76,1.119 3.325,0.554c0.965,-0.965 -2.126,-2.718 -2.217,-2.77c-4.652,-2.658 -9.447,-4.665 -14.405,-6.648c-0.013,-0.006 -5.54,-2.401 -5.54,-2.217c0,0.826 1.482,0.73 2.216,1.109c4.265,2.197 8.202,3.878 13.297,3.878c0.234,-0 5.878,0.675 4.987,-1.108c-2.015,-4.03 -11.519,-6.126 -16.068,-7.757c-1.85,-0.663 -3.109,-0.723 -4.986,-1.662c-0.522,-0.261 -2.246,-0.554 -1.662,-0.554c5.368,0 10.654,0.554 16.067,0.554c1.432,0 5.408,0.133 6.649,-1.108c0.538,-0.538 -1.463,-0.446 -2.217,-0.554c-1.645,-0.235 -3.324,-0 -4.986,-0c-3.599,-0 -6.986,0.464 -10.527,1.108c-2.247,0.409 -6.648,1.662 -6.648,1.662c-0,0 3.285,-1.92 4.986,-2.77c5.17,-2.585 10.066,-5.197 14.959,-8.311c2.539,-1.615 2.321,-1.547 4.987,-3.324c0.554,-0.369 2.257,-0.81 1.662,-1.108c-2.107,-1.053 -5.636,1.915 -7.203,2.77c-5.001,2.728 -10.099,5.32 -14.959,8.311c-2.899,1.784 -2.649,1.672 -5.54,3.324c-0.717,0.41 -2.586,1.847 -2.217,1.108c0.557,-1.113 3.367,-2.398 3.879,-2.77c5.531,-4.023 12.406,-8.458 17.241,-13.293c2.064,-2.064 4.378,-3.655 6.583,-5.544c0.793,-0.68 3.207,-2.547 2.216,-2.217c-5.091,1.697 -15.056,13.234 -19.392,17.176c-1.838,1.671 -5.54,2.501 -5.54,4.986c-0,1.183 1.934,-1.38 2.77,-2.216c3.014,-3.014 2.844,-2.855 6.095,-5.541c6.112,-5.051 11.875,-11.401 16.621,-17.729c0.028,-0.038 4.89,-6.19 3.878,-7.202c-1.16,-1.16 -8.268,6.055 -8.311,6.094c-4.796,4.397 -9.248,9.249 -13.851,13.851c-0.886,0.886 -4.829,3.565 -5.54,4.986c-0.413,0.826 1.521,-1.054 2.216,-1.662c3.225,-2.821 3.037,-2.668 6.095,-5.54c4.883,-4.588 9.326,-9.428 13.851,-14.405c0.211,-0.233 5.158,-7.203 4.986,-7.203c-1.634,0 -5.082,3.604 -6.094,4.433c-4.13,3.378 -8.19,7.207 -12.508,10.291c-2.604,1.86 -2.355,1.801 -4.668,4.114c-0.738,0.738 -1.423,1.536 -2.216,2.216c-0.505,0.433 -2.328,1.108 -1.662,1.108c1.22,-0 4.512,-2.936 4.986,-3.324c5.274,-4.315 10.737,-8.445 15.513,-13.297c3.015,-3.062 6.19,-6.039 9.419,-8.865c1.086,-0.95 4.615,-2.125 3.324,-2.77c-1.122,-0.561 -5.261,1.762 -6.094,2.216c-5.24,2.858 -10.063,6.321 -15.513,8.865c-2.533,1.182 -5.74,3.08 -8.561,3.644c-0.66,0.132 -4.303,1.282 -4.182,1.342c1.996,0.998 9.297,-0.554 11.635,-0.554c4.426,0 7.477,0.015 11.635,1.108c2.453,0.645 2.362,0.117 4.986,0.554c0.576,0.096 2.246,0.554 1.662,0.554c-6.901,0 -11.72,-7.16 -16.621,-11.081c-0.172,-0.137 -6.632,-6.146 -7.203,-5.54c-0.266,0.283 4.874,5.399 4.987,5.54c3.255,4.102 7.718,8.678 12.743,10.527c2.324,0.856 2.246,0.602 4.435,1.697c0.095,0.047 3.321,1.048 3.321,0.519c0,-0.625 -4.202,-4.202 -4.432,-4.432c-3.915,-3.914 -7.864,-8.202 -12.189,-11.635c-2.691,-2.136 -2.552,-1.998 -4.986,-4.432c-0.739,-0.739 -2.955,-2.955 -2.217,-2.216c6.464,6.463 10.352,9.236 19.946,11.635c0.074,0.018 6.648,0.997 6.648,0.554c0,-1.209 -2.386,-2.482 -2.77,-2.771c-4.307,-3.23 -9.581,-5.898 -14.405,-8.31c-2.305,-1.153 -2.27,-0.919 -4.432,-2.216c-0.501,-0.301 -2.246,-0.554 -1.662,-0.554c5.615,-0 11.98,3.111 17.729,3.878c3.904,0.52 3.688,0.554 7.757,0.554l2.77,-0c0.739,-0 2.955,-0 2.216,-0c-6.688,-0 -14.17,-0.469 -20.5,-2.77c-0.611,-0.223 -6.086,-1.683 -6.094,-3.325c-0.01,-2.195 10.445,-3.311 10.527,-3.324c6.251,-0.987 12.565,-1.432 18.837,-2.216c6.583,-0.823 14.487,-3.297 21.054,-1.108" style="fill:none;stroke:black;stroke-width:1px;"/>
    <path d="M324.434,403.185c1.041,-1.821 4.32,-7.687 6.094,-10.527c0.112,-0.179 3.102,-4.654 3.324,-4.432c0.735,0.735 -1.96,4.476 -2.216,4.986c-2.626,5.253 -5.909,9.893 -8.864,14.96c-1.041,1.783 -1.847,3.693 -2.771,5.54c-0.261,0.522 -1.076,1.923 -0.554,1.662c2.286,-1.143 3.449,-4.234 4.987,-6.094c4.129,-4.998 8.932,-9.605 13.297,-14.405c1.581,-1.74 3.456,-3.202 4.986,-4.987c0.68,-0.793 2.216,-3.261 2.216,-2.216c0,0.536 -4.828,5.342 -4.986,5.54c-4.628,5.785 -9.076,11.633 -13.297,17.73c-2.164,3.126 -4.303,6.852 -3.878,7.202c1.313,1.084 2.612,-2.185 3.878,-3.324c4.384,-3.945 8.03,-8.584 12.189,-12.743c2.47,-2.47 4.574,-4.949 7.202,-7.202c0.898,-0.77 3.399,-2.771 2.216,-2.771c-0.85,0 -8.458,10.401 -9.418,11.635c-0.375,0.482 -5.686,7.961 -4.987,8.311c1.202,0.601 2.888,-1.28 3.325,-1.662c3.348,-2.93 6.451,-6.126 9.972,-8.865c1.903,-1.479 1.53,-1.53 3.325,-3.324c0.47,-0.471 1.662,-1.774 1.662,-1.108c-0,1.758 -7.659,11.691 -8.865,14.405c-0.089,0.199 -3.042,4.651 -2.216,4.986c2.317,0.94 8.268,-7.16 9.419,-8.31c1.388,-1.389 3.878,-4.433 3.878,-4.433c-0,0 -1.427,2.616 -2.216,3.878c-1.588,2.541 -2.845,5.217 -4.433,7.757c-0.329,0.527 -3.481,4.275 -2.77,4.986c1.088,1.088 7.324,-7.077 8.311,-8.31c0.577,-0.721 1.924,-2.538 2.216,-1.662c1.288,3.863 -7.667,17.663 1.108,14.959c0.935,-0.288 1.973,-1.1 2.77,-1.662" style="fill:none;stroke:black;stroke-width:1px;"/>
    <path d="M461.836,344.457c4.754,-4.046 12.799,-6.483 18.283,-9.973c2.741,-1.744 3.377,-4.914 0.554,-3.324" style="fill:none;stroke:black;stroke-width:1px;"/>
    <path d="M455.741,354.43c3.338,-2.443 6.662,-4.906 10.015,-7.328c7.383,-5.332 11.64,-10.904 9.377,-5.415" style="fill:none;stroke:black;stroke-width:1px;"/>
    <path d="M459.066,367.173c6.279,-5.726 12.558,-11.451 18.837,-17.176" style="fill:none;stroke:black;stroke-width:1px;"/>
</svg>
