<?xml version="1.0" encoding="UTF-8" standalone="no"?>
<!DOCTYPE svg PUBLIC "-//W3C//DTD SVG 1.1//EN" "http://www.w3.org/Graphics/SVG/1.1/DTD/svg11.dtd">
<svg width="800px" height="600px" version="1.1" xmlns="http://www.w3.org/2000/svg" xmlns:xlink="http://www.w3.org/1999/xlink" xml:space="preserve" xmlns:serif="http://www.serif.com/" style="fill-rule:evenodd;clip-rule:evenodd;stroke-linecap:round;stroke-linejoin:round;stroke-miterlimit:1.5;">
    <path d="M316.123,163.286c-3.843,-3.843 5.288,-19.061 6.649,-23.824c5.767,-20.185 8.205,-35.408 -7.757,-50.972c-5.744,-5.601 -10.46,-10.907 -19.391,-9.419c-22.556,3.76 -33.525,21.355 -37.675,42.107c-2.601,13.004 4.451,21.455 10.527,31.581c2.708,4.514 9.788,10.154 8.31,16.067c-2.33,9.321 -16.175,20.608 -22.715,27.148c-2.373,2.372 -7.797,6.215 -8.865,9.419c-3.848,11.544 -1.382,25.73 -2.77,38.228c-0.796,7.166 -5.265,14.41 -7.757,21.054c-2.156,5.751 -2.993,11.973 -4.432,17.729c-1.064,4.256 1.108,9.051 1.108,13.297c-0,10.687 -0.374,20.7 -3.324,31.027c-6.114,21.399 -20.999,48.667 3.324,64.268c11.098,7.119 23.115,-7.693 25.486,-17.175c2.647,-10.589 -1.074,-20.846 -2.77,-31.026c-2.08,-12.48 -0.372,-28.798 1.662,-40.999c1.191,-7.151 2.072,-14.809 4.986,-21.608c1.777,-4.146 6.03,-5.36 8.865,-1.108c4.959,7.439 5.43,16.406 6.648,24.932c2.431,17.013 5.516,33.994 3.324,51.526c-0.726,5.814 0.554,11.861 0.554,17.729c0,12.013 -0.184,23.641 -1.662,35.459c-0.93,7.441 1.061,15.293 0,22.715c-1.985,13.901 -8.222,26.443 -9.972,40.445c-1.752,14.015 2.815,23.54 4.986,36.567c1.626,9.758 -1.127,21.129 -3.324,29.918c-1.871,7.484 -9.8,14.439 -12.189,21.608c-2.313,6.939 3.407,14.426 9.973,16.067c9.113,2.278 17.274,-3.462 24.377,-8.311c2.558,-1.746 7.775,-2.845 9.419,-5.54c2.917,-4.784 4.768,-10.76 6.095,-16.067c3.324,-13.3 -1.109,-28.222 -1.109,-41.553c0,-15.225 0.846,-30.003 3.325,-44.878c1.947,-11.683 -1.662,-28.284 -1.662,-40.999c-0,-9.952 -2.215,-25.708 -0,-34.904c2.013,-8.362 10.991,-15.051 19.391,-13.851c7.465,1.066 9.764,5.898 13.297,11.635c6.712,10.897 9.096,23.085 12.189,35.458c5.769,23.077 16.083,44.917 24.932,67.039c3.528,8.821 1.449,18.859 4.986,27.702c1.411,3.529 3.294,7.111 4.432,10.527c2.298,6.893 2.366,16.419 9.419,19.945c0.946,0.473 2.13,3.473 2.77,4.433c6.994,10.49 13.154,21.782 27.148,18.283c10.951,-2.738 14.959,-16.488 14.959,-26.04c0,-10.776 -11.631,-28.806 -18.283,-37.675c-3.026,-4.034 -4.182,-9.27 -7.203,-13.297c-7.336,-9.781 -8.217,-24.621 -11.634,-36.012c-3.548,-11.826 -7.873,-22.841 -12.189,-34.351c-7.194,-19.182 -7.968,-40.78 -13.851,-60.39c-2.31,-7.698 -5.185,-15.422 -8.311,-22.716c-4.017,-9.374 -11.346,-18.235 -13.851,-28.256c-3.583,-14.334 -8.93,-28.419 -14.405,-42.107c-2.625,-6.562 -3.434,-14.181 -5.54,-20.5c-2.574,-7.721 0.749,-14.057 8.31,-7.756c4.281,3.567 6.732,8.602 9.419,13.297c3.083,5.387 5.806,11.878 7.757,17.729c1.808,5.424 2.402,11.209 4.432,16.621c3.93,10.482 10.164,20.6 17.175,29.365c2.53,3.162 3.861,7.932 7.203,10.526c6.531,5.07 21.077,3.195 27.148,-1.662c3.46,-2.768 6.75,-5.861 9.418,-9.419c6.732,-8.976 3.069,-26.295 -4.432,-33.796c-9.651,-9.651 -22.078,-16.642 -33.796,-23.27c-8.421,-4.762 -15.093,-14.71 -21.054,-22.161c-9.289,-11.612 -13.711,-26.587 -17.175,-40.445c-3.211,-12.842 -5.773,-24.771 -18.284,-31.027c-5.809,-2.904 -13.295,1.108 -18.283,1.108" style="fill:none;stroke:black;stroke-width:1px;"/>
</svg>
